<svg xmlns="http://www.w3.org/2000/svg" width="1320" height="560" viewBox="0 0 1320 560">
  <defs>
    <linearGradient id="bg" x1="0" y1="0" x2="1" y2="1">
      <stop offset="0%" stop-color="#0f172a" />
      <stop offset="100%" stop-color="#020617" />
    </linearGradient>
    <linearGradient id="coreGrad" x1="0" y1="0" x2="1" y2="1">
      <stop offset="0%" stop-color="#1d4ed8" />
      <stop offset="100%" stop-color="#0b1220" />
    </linearGradient>
    <linearGradient id="runnerGrad" x1="0" y1="0" x2="1" y2="1">
      <stop offset="0%" stop-color="#ef4444" />
      <stop offset="100%" stop-color="#0b1220" />
    </linearGradient>
    <marker id="arrow" viewBox="0 0 10 10" refX="9" refY="5" markerWidth="7" markerHeight="7" orient="auto">
      <path d="M 0 0 L 10 5 L 0 10 z" fill="#94a3b8" />
    </marker>
    <marker id="arrowGreen" viewBox="0 0 10 10" refX="9" refY="5" markerWidth="7" markerHeight="7" orient="auto">
      <path d="M 0 0 L 10 5 L 0 10 z" fill="#22c55e" />
    </marker>
    <filter id="softShadow" x="-20%" y="-20%" width="140%" height="140%">
      <feDropShadow dx="0" dy="8" stdDeviation="10" flood-color="#020617" flood-opacity="0.45" />
    </filter>
  </defs>

  <style>
    .bg { fill: url(#bg); }
    .panel { fill: rgba(15, 23, 42, 0.72); stroke: #334155; stroke-width: 1.5; rx: 18; filter: url(#softShadow); }
    .stage { fill: #0b1220; stroke: #3b82f6; stroke-width: 2; rx: 16; }
    .stage2 { fill: #0b1220; stroke: #22c55e; stroke-width: 2; rx: 16; }
    .stage3 { fill: #0b1220; stroke: #f59e0b; stroke-width: 2; rx: 16; }
    .stage4 { fill: #0b1220; stroke: #a855f7; stroke-width: 2; rx: 16; }
    .stage5 { fill: url(#runnerGrad); stroke: #ef4444; stroke-width: 2; rx: 16; }
    .module { fill: #111827; stroke: #475569; stroke-width: 1.6; rx: 14; }
    .title { fill: #ffffff; font: 700 18px ui-sans-serif, system-ui, -apple-system, Segoe UI, Roboto, Helvetica, Arial; }
    .subtitle { fill: #cbd5e1; font: 12px ui-sans-serif, system-ui, -apple-system, Segoe UI, Roboto, Helvetica, Arial; }
    .label { fill: #f8fafc; font: 600 14px ui-sans-serif, system-ui, -apple-system, Segoe UI, Roboto, Helvetica, Arial; }
    .text { fill: #e2e8f0; font: 12px ui-sans-serif, system-ui, -apple-system, Segoe UI, Roboto, Helvetica, Arial; }
    .muted { fill: #94a3b8; font: 11px ui-sans-serif, system-ui, -apple-system, Segoe UI, Roboto, Helvetica, Arial; }
    .arrow { stroke: #94a3b8; stroke-width: 2.2; fill: none; marker-end: url(#arrow); }
    .arrowGreen { stroke: #22c55e; stroke-width: 2.2; fill: none; marker-end: url(#arrowGreen); }
    .chip { fill: #1e293b; stroke: #334155; stroke-width: 1; rx: 999; }
  </style>

  <rect class="bg" x="0" y="0" width="1320" height="560" />

  <text class="title" x="34" y="34">AgentCtx architecture schematic</text>
  <text class="subtitle" x="34" y="56">The diagram is intentionally layered: compiler core, adapters, targets, CLI, and evaluator are separated by responsibility.</text>

  <rect class="panel" x="24" y="82" width="1272" height="174" rx="20" />
  <text class="label" x="52" y="114">Runtime pipeline</text>

  <rect class="stage" x="52" y="132" width="160" height="82" rx="16" />
  <text class="label" x="76" y="162">Config</text>
  <text class="muted" x="76" y="184">scope + targets</text>
  <text class="muted" x="76" y="200">entry: agentctx.config.ts</text>

  <rect class="stage" x="236" y="132" width="160" height="82" rx="16" />
  <text class="label" x="268" y="162">Index</text>
  <text class="muted" x="268" y="184">stable file set</text>
  <text class="muted" x="268" y="200">hash + filter</text>

  <rect class="stage2" x="420" y="132" width="160" height="82" rx="16" />
  <text class="label" x="450" y="162">Facts</text>
  <text class="muted" x="450" y="184">metadata signals</text>
  <text class="muted" x="450" y="200">adapters</text>

  <rect class="stage3" x="604" y="132" width="160" height="82" rx="16" />
  <text class="label" x="636" y="162">Graph</text>
  <text class="muted" x="636" y="184">nodes + edges</text>
  <text class="muted" x="636" y="200">scope boundaries</text>

  <rect class="stage4" x="788" y="132" width="160" height="82" rx="16" />
  <text class="label" x="786" y="162">Context blocks</text>
  <text class="muted" x="812" y="184">summary/rules</text>
  <text class="muted" x="812" y="200">token shaping</text>

  <rect class="stage3" x="972" y="132" width="160" height="82" rx="16" />
  <text class="label" x="998" y="162">Targets</text>
  <text class="muted" x="998" y="184">AGENTS / CLAUDE</text>
  <text class="muted" x="998" y="200">renderers only</text>

  <rect class="stage5" x="1156" y="132" width="108" height="82" rx="16" />
  <text class="label" x="1174" y="162">Sync</text>
  <text class="muted" x="1174" y="184">write files</text>
  <text class="muted" x="1174" y="200">preserve edits</text>

  <path class="arrow" d="M 212 173 L 236 173" />
  <path class="arrow" d="M 396 173 L 420 173" />
  <path class="arrow" d="M 580 173 L 604 173" />
  <path class="arrow" d="M 764 173 L 788 173" />
  <path class="arrow" d="M 948 173 L 972 173" />
  <path class="arrowGreen" d="M 1132 173 L 1156 173" />

  <rect class="panel" x="24" y="276" width="404" height="230" rx="20" />
  <text class="label" x="52" y="308">Package responsibilities</text>

  <rect class="module" x="52" y="328" width="150" height="48" rx="12" />
  <text class="label" x="76" y="357">core</text>
  <text class="muted" x="76" y="374">compiler primitives</text>

  <rect class="module" x="222" y="328" width="150" height="48" rx="12" />
  <text class="label" x="244" y="357">adapters</text>
  <text class="muted" x="244" y="374">metadata detectors</text>

  <rect class="module" x="52" y="392" width="150" height="48" rx="12" />
  <text class="label" x="76" y="421">targets</text>
  <text class="muted" x="76" y="438">formatters only</text>

  <rect class="module" x="222" y="392" width="150" height="48" rx="12" />
  <text class="label" x="248" y="421">cli</text>
  <text class="muted" x="248" y="438">orchestration</text>

  <text class="muted" x="52" y="468">Reason: separate scan, compile, render, and mutate concerns.</text>
  <text class="muted" x="52" y="490">This keeps each package independently testable and easy to change.</text>

  <rect class="panel" x="456" y="276" width="390" height="230" rx="20" />
  <text class="label" x="484" y="308">Data contracts</text>

  <g>
    <rect class="chip" x="484" y="332" width="300" height="28" rx="999" />
    <text class="text" x="498" y="351">AgentCtxConfig → normalized runtime config</text>
  </g>
  <g>
    <rect class="chip" x="484" y="370" width="300" height="28" rx="999" />
    <text class="text" x="498" y="389">RepoFileIndex → filtered and hashed files</text>
  </g>
  <g>
    <rect class="chip" x="484" y="408" width="300" height="28" rx="999" />
    <text class="text" x="498" y="427">Fact → normalized detector output</text>
  </g>
  <g>
    <rect class="chip" x="484" y="446" width="300" height="28" rx="999" />
    <text class="text" x="498" y="465">CtxGraph → structural model</text>
  </g>
  <g>
    <rect class="chip" x="484" y="484" width="300" height="28" rx="999" />
    <text class="text" x="498" y="503">Context surfaces → generated outputs</text>
  </g>

  <rect class="panel" x="872" y="276" width="424" height="230" rx="20" />
  <text class="label" x="900" y="308">Evaluation loop</text>

  <rect class="stage5" x="900" y="332" width="160" height="54" rx="14" />
  <text class="label" x="928" y="364">Dual Agent Runner</text>
  <text class="muted" x="928" y="382">Builder + Evaluator</text>

  <rect class="module" x="1084" y="332" width="180" height="54" rx="14" />
  <text class="label" x="1110" y="364">Reports</text>
  <text class="muted" x="1110" y="382">markdown + JSON</text>

  <rect class="module" x="900" y="404" width="364" height="56" rx="14" />
  <text class="label" x="924" y="438">What it checks</text>
  <text class="muted" x="1042" y="438">typecheck • tests • build • tokenUsage • security</text>

  <path class="arrow" d="M 1060 359 L 1084 359" />
  <path class="arrowGreen" d="M 990 386 C 990 405 1000 412 1030 418" />

  <text class="muted" x="24" y="544">Pattern: compile once, render many. The evaluator stays outside the compiler so quality gating cannot blur the runtime contract.</text>
</svg>
